<svg width="46" height="47" viewBox="0 0 46 47" fill="none" xmlns="http://www.w3.org/2000/svg">
<path fill-rule="evenodd" clip-rule="evenodd" d="M1.8693 44.4495V29.3848H0V46.3188H16.934V44.4495H1.8693Z" fill="white"/>
<path fill-rule="evenodd" clip-rule="evenodd" d="M43.6815 1.86889L43.6815 16.9336L45.5508 16.9336L45.5508 -0.000405797L28.6168 -0.000407277L28.6168 1.86889L43.6815 1.86889Z" fill="white"/>
<path d="M8.16797 24.7443V24.52L8.6166 24.363C9.12505 24.1985 9.37928 23.7723 9.37928 23.0844V11.5994C9.37928 11.3003 9.34189 11.061 9.26712 10.8816C9.2073 10.7021 9.03532 10.5526 8.75119 10.4329L8.16797 10.1638V9.93945H12.4973L16.6471 20.7964L20.5502 9.93945H24.9692V10.1638L24.6103 10.2984C24.3262 10.403 24.1318 10.5526 24.0271 10.747C23.9224 10.9264 23.8701 11.1657 23.8701 11.4648V23.1965C23.8701 23.4956 23.9075 23.7274 23.9823 23.8919C24.057 24.0564 24.2365 24.1985 24.5206 24.3181L24.9692 24.52V24.7443H19.3838V24.52L19.8548 24.3181C20.139 24.1985 20.3184 24.0564 20.3932 23.8919C20.468 23.7274 20.5054 23.4956 20.5054 23.1965V18.1494L20.5502 11.734L15.862 24.7443H14.7404L9.85034 11.891L9.91763 17.4765V23.1292C9.91763 23.4582 9.9625 23.7274 10.0522 23.9368C10.1569 24.1312 10.3513 24.2732 10.6354 24.363L11.1289 24.52V24.7443H8.16797Z" fill="white"/>
<path d="M25.8398 39.6984V39.4741L26.2885 39.3171C26.5876 39.2274 26.782 39.0928 26.8717 38.9133C26.9764 38.7339 27.0287 38.4946 27.0287 38.1955V26.4413C27.0287 26.1422 26.9764 25.903 26.8717 25.7235C26.767 25.5441 26.5651 25.402 26.266 25.2973L25.8398 25.1179V24.8936H31.2907C33.5189 24.8936 35.1265 25.3048 36.1135 26.1273C37.1155 26.9348 37.6164 28.0041 37.6164 29.335C37.6164 30.1874 37.4071 30.9725 36.9884 31.6903C36.5846 32.3932 35.9116 32.954 34.9695 33.3727C34.0274 33.7914 32.7563 34.0008 31.1561 34.0008H30.3935V38.1282C30.3935 38.7114 30.6851 39.0928 31.2683 39.2722L31.9412 39.4741V39.6984H25.8398ZM30.3935 33.5522H31.2459C31.9786 33.5522 32.5768 33.4325 33.0404 33.1932C33.504 32.954 33.8479 32.5353 34.0722 31.9371C34.2966 31.3389 34.4087 30.5089 34.4087 29.4472C34.4087 28.3705 34.2816 27.533 34.0274 26.9348C33.7881 26.3367 33.4292 25.9254 32.9507 25.7011C32.4721 25.4618 31.8739 25.3422 31.1561 25.3422H30.3935V33.5522Z" fill="white"/>
</svg>
