<svg width="180" height="53" viewBox="0 0 180 53" fill="none" xmlns="http://www.w3.org/2000/svg">
<path fill-rule="evenodd" clip-rule="evenodd" d="M1.66578 50.3005V36.876H0V51.9663H15.0903V50.3005H1.66578Z" fill="white"/>
<path fill-rule="evenodd" clip-rule="evenodd" d="M178.182 1.66533L178.182 15.0898L179.848 15.0898L179.848 -0.000450793L164.757 -0.000452112L164.757 1.66533L178.182 1.66533Z" fill="white"/>
<path d="M15.6406 33.6555V33.3569L16.2379 33.1479C16.9147 32.9289 17.2531 32.3616 17.2531 31.4458V16.1567C17.2531 15.7586 17.2034 15.4401 17.1038 15.2012C17.0242 14.9623 16.7953 14.7632 16.417 14.6039L15.6406 14.2456V13.947H21.4039L26.9283 28.3999L32.1242 13.947H38.0069V14.2456L37.5291 14.4248C37.1508 14.5641 36.892 14.7632 36.7527 15.022C36.6133 15.2609 36.5437 15.5794 36.5437 15.9776V31.5951C36.5437 31.9933 36.5934 32.3018 36.693 32.5208C36.7925 32.7398 37.0314 32.9289 37.4096 33.0882L38.0069 33.3569V33.6555H30.5714V33.3569L31.1985 33.0882C31.5767 32.9289 31.8156 32.7398 31.9151 32.5208C32.0147 32.3018 32.0644 31.9933 32.0644 31.5951V24.8763L32.1242 16.3359L25.8831 33.6555H24.39L17.8802 16.5449L17.9698 23.9804V31.5055C17.9698 31.9435 18.0295 32.3018 18.149 32.5805C18.2883 32.8393 18.5471 33.0285 18.9254 33.1479L19.5823 33.3569V33.6555H15.6406Z" fill="white"/>
<path d="M45.8798 34.1035C44.5261 34.1035 43.2918 33.8148 42.177 33.2375C41.0821 32.6403 40.2061 31.7842 39.5492 30.6694C38.9121 29.5347 38.5936 28.1511 38.5936 26.5187C38.5936 24.9061 38.942 23.5325 39.6387 22.3978C40.3554 21.2431 41.301 20.3672 42.4756 19.77C43.67 19.1528 44.974 18.8443 46.3874 18.8443C47.5421 18.8443 48.5176 19.0334 49.3139 19.4116C50.1102 19.7899 50.7174 20.2876 51.1354 20.9047C51.5535 21.5019 51.7625 22.129 51.7625 22.786C51.7625 23.3434 51.5933 23.7814 51.2549 24.0999C50.9164 24.3985 50.4785 24.5478 49.941 24.5478C49.3636 24.5478 48.8958 24.3388 48.5375 23.9207C48.1791 23.5027 47.9701 22.9552 47.9104 22.2783C47.8905 21.8404 47.9004 21.4721 47.9402 21.1735C47.9801 20.8549 47.9801 20.5364 47.9402 20.2179C47.8606 19.8795 47.7312 19.6605 47.552 19.5609C47.3928 19.4415 47.1638 19.3818 46.8652 19.3818C45.6509 19.3818 44.7052 19.9093 44.0284 20.9644C43.3714 22.0195 43.043 23.7017 43.043 26.011C43.043 28.0217 43.4112 29.5645 44.1478 30.6395C44.9043 31.6946 46.059 32.2222 47.6118 32.2222C48.5474 32.2222 49.3039 32.053 49.8812 31.7146C50.4586 31.3761 51.016 30.8685 51.5535 30.1916L51.8521 30.4305C51.3544 31.6051 50.588 32.5109 49.5528 33.1479C48.5176 33.7849 47.2932 34.1035 45.8798 34.1035Z" fill="white"/>
<path d="M57.697 33.7451L52.4115 15.9776C52.2722 15.5197 52.1229 15.1912 51.9636 14.9921C51.8043 14.7731 51.5256 14.5741 51.1275 14.3949L50.7691 14.2456V13.947H58.6824V14.2456L58.0553 14.4845C57.5975 14.6637 57.2889 14.8826 57.1296 15.1414C56.9704 15.4002 56.9604 15.7586 57.0998 16.2164L60.3547 28.6388L63.8783 18.2172L63.1915 16.097C63.0522 15.6789 62.9228 15.3604 62.8033 15.1414C62.6839 14.9225 62.4848 14.7433 62.2061 14.6039L61.5491 14.2456V13.947H69.0444V14.2456L68.1187 14.6039C67.7205 14.7433 67.4916 14.9523 67.4318 15.231C67.392 15.4898 67.4418 15.8282 67.5812 16.2463L71.3736 28.9374L74.9569 16.4852C75.0963 16.0074 75.1461 15.5894 75.1062 15.231C75.0664 14.8727 74.8176 14.6139 74.3597 14.4546L73.7326 14.2456V13.947H77.8834V14.2456L77.107 14.5442C76.7088 14.6836 76.4301 14.9025 76.2708 15.2012C76.1116 15.4998 75.9722 15.8681 75.8528 16.306L70.8958 33.7451H68.8353L64.3561 19.7102L59.7574 33.7451H57.697Z" fill="white"/>
<path d="M81.3965 17.2915C80.7197 17.2915 80.1423 17.0824 79.6645 16.6644C79.2067 16.2264 78.9777 15.6789 78.9777 15.022C78.9777 14.3451 79.2067 13.7977 79.6645 13.3796C80.1423 12.9615 80.7197 12.7525 81.3965 12.7525C82.0734 12.7525 82.6407 12.9615 83.0986 13.3796C83.5565 13.7977 83.7854 14.3451 83.7854 15.022C83.7854 15.6789 83.5565 16.2264 83.0986 16.6644C82.6407 17.0824 82.0734 17.2915 81.3965 17.2915ZM77.8729 33.6555V33.3569L78.2909 33.2375C78.6891 33.118 78.9578 32.9389 79.0972 32.7C79.2564 32.4611 79.3361 32.1426 79.3361 31.7444V22.3978C79.3361 21.9797 79.2564 21.6711 79.0972 21.4721C78.9578 21.2531 78.6891 21.1038 78.2909 21.0241L77.8729 20.9346V20.6359L83.3375 18.8741L83.6361 19.1727L83.5465 23.4131V31.7743C83.5465 32.1724 83.6162 32.491 83.7556 32.7298C83.9148 32.9687 84.1836 33.1479 84.5618 33.2674L84.8604 33.3569V33.6555H77.8729Z" fill="white"/>
<path d="M86.2721 33.6555V33.3569L86.6304 33.2375C87.3471 32.9986 87.7054 32.5009 87.7054 31.7444V15.7685C87.7054 15.3704 87.6258 15.0718 87.4666 14.8727C87.3073 14.6537 87.0286 14.4944 86.6304 14.3949L86.2422 14.3053V14.0067L91.7069 12.7227L92.0652 12.9914L91.9458 17.172V27.3846C91.9458 28.1212 91.9458 28.8578 91.9458 29.5944C91.9657 30.3111 91.9756 31.0277 91.9756 31.7444C91.9756 32.1426 92.0553 32.471 92.2145 32.7298C92.3738 32.9687 92.6425 33.1479 93.0208 33.2674L93.409 33.3569V33.6555H86.2721Z" fill="white"/>
<path d="M94.8164 33.6555V33.3569L95.1748 33.2375C95.8915 32.9986 96.2498 32.5009 96.2498 31.7444V15.7685C96.2498 15.3704 96.1702 15.0718 96.0109 14.8727C95.8516 14.6537 95.5729 14.4944 95.1748 14.3949L94.7866 14.3053V14.0067L100.251 12.7227L100.61 12.9914L100.49 17.172V27.3846C100.49 28.1212 100.49 28.8578 100.49 29.5944C100.51 30.3111 100.52 31.0277 100.52 31.7444C100.52 32.1426 100.6 32.471 100.759 32.7298C100.918 32.9687 101.187 33.1479 101.565 33.2674L101.953 33.3569V33.6555H94.8164Z" fill="white"/>
<path d="M106.855 17.2915C106.178 17.2915 105.6 17.0824 105.123 16.6644C104.665 16.2264 104.436 15.6789 104.436 15.022C104.436 14.3451 104.665 13.7977 105.123 13.3796C105.6 12.9615 106.178 12.7525 106.855 12.7525C107.531 12.7525 108.099 12.9615 108.557 13.3796C109.015 13.7977 109.243 14.3451 109.243 15.022C109.243 15.6789 109.015 16.2264 108.557 16.6644C108.099 17.0824 107.531 17.2915 106.855 17.2915ZM103.331 33.6555V33.3569L103.749 33.2375C104.147 33.118 104.416 32.9389 104.555 32.7C104.715 32.4611 104.794 32.1426 104.794 31.7444V22.3978C104.794 21.9797 104.715 21.6711 104.555 21.4721C104.416 21.2531 104.147 21.1038 103.749 21.0241L103.331 20.9346V20.6359L108.796 18.8741L109.094 19.1727L109.005 23.4131V31.7743C109.005 32.1724 109.074 32.491 109.214 32.7298C109.373 32.9687 109.642 33.1479 110.02 33.2674L110.319 33.3569V33.6555H103.331Z" fill="white"/>
<path d="M116 34.1035C114.846 34.1035 113.87 33.775 113.074 33.118C112.298 32.4611 111.909 31.5155 111.909 30.2812C111.909 29.3455 112.387 28.4895 113.343 27.7131C114.298 26.9168 115.801 26.3196 117.852 25.9214C118.17 25.8617 118.529 25.802 118.927 25.7423C119.325 25.6626 119.743 25.583 120.181 25.5034V23.1443C120.181 21.7906 120.012 20.845 119.673 20.3075C119.355 19.7501 118.847 19.4713 118.15 19.4713C117.673 19.4713 117.294 19.6306 117.016 19.9491C116.737 20.2477 116.558 20.7753 116.478 21.5318L116.418 21.8603C116.379 22.7163 116.17 23.3434 115.791 23.7415C115.413 24.1397 114.945 24.3388 114.388 24.3388C113.87 24.3388 113.442 24.1795 113.104 23.861C112.765 23.5425 112.596 23.1144 112.596 22.5769C112.596 21.7607 112.875 21.0739 113.432 20.5165C114.01 19.9591 114.766 19.541 115.702 19.2623C116.637 18.9836 117.653 18.8443 118.748 18.8443C120.519 18.8443 121.883 19.2822 122.839 20.1582C123.814 21.0142 124.302 22.4177 124.302 24.3686V30.968C124.302 31.8639 124.72 32.3118 125.556 32.3118H126.213L126.482 32.5507C126.103 33.0285 125.685 33.3968 125.228 33.6555C124.79 33.9143 124.162 34.0437 123.346 34.0437C122.47 34.0437 121.774 33.8447 121.256 33.4465C120.758 33.0285 120.43 32.481 120.271 31.8041C119.673 32.4412 119.056 32.9886 118.419 33.4465C117.802 33.8845 116.996 34.1035 116 34.1035ZM117.822 32.2819C118.22 32.2819 118.588 32.1923 118.927 32.0132C119.285 31.8141 119.703 31.5155 120.181 31.1173V26.1006C119.982 26.1404 119.783 26.1802 119.584 26.22C119.385 26.2599 119.156 26.2997 118.897 26.3395C117.981 26.5784 117.245 26.9865 116.687 27.5638C116.15 28.1212 115.881 28.8777 115.881 29.8333C115.881 30.6495 116.07 31.2666 116.448 31.6847C116.827 32.0828 117.284 32.2819 117.822 32.2819Z" fill="white"/>
<path d="M127.038 33.6555V33.3569L127.456 33.2375C127.834 33.138 128.093 32.9687 128.232 32.7298C128.392 32.491 128.481 32.1724 128.501 31.7743V22.4276C128.501 21.9897 128.431 21.6711 128.292 21.4721C128.153 21.2531 127.884 21.1038 127.486 21.0241L127.038 20.9047V20.6061L132.144 18.8741L132.443 19.1727L132.682 21.2033C133.339 20.5464 134.085 19.9889 134.921 19.5311C135.777 19.0732 136.663 18.8443 137.579 18.8443C138.535 18.8443 139.301 19.0433 139.878 19.4415C140.456 19.8197 140.894 20.417 141.192 21.2332C141.969 20.4966 142.805 19.9193 143.701 19.5012C144.616 19.0632 145.502 18.8443 146.358 18.8443C147.772 18.8443 148.807 19.1827 149.464 19.8595C150.141 20.5364 150.479 21.6015 150.479 23.0547V31.8041C150.479 32.5805 150.837 33.0683 151.554 33.2674L151.883 33.3569V33.6555H144.985V33.3569L145.283 33.2674C145.661 33.1479 145.92 32.9687 146.06 32.7298C146.219 32.491 146.299 32.1724 146.299 31.7743V22.6367C146.299 21.8005 146.149 21.2332 145.851 20.9346C145.552 20.616 145.074 20.4568 144.417 20.4568C143.9 20.4568 143.392 20.5762 142.894 20.8151C142.417 21.0341 141.909 21.3725 141.371 21.8304C141.471 22.1489 141.531 22.4973 141.551 22.8756C141.59 23.2538 141.61 23.652 141.61 24.07V31.8041C141.63 32.5805 141.989 33.0683 142.685 33.2674L142.954 33.3569V33.6555H136.026V33.3569L136.444 33.2375C136.823 33.118 137.081 32.9488 137.221 32.7298C137.38 32.491 137.46 32.1724 137.46 31.7743V22.6665C137.46 21.8702 137.31 21.3029 137.012 20.9644C136.733 20.626 136.245 20.4568 135.548 20.4568C135.091 20.4568 134.633 20.5762 134.175 20.8151C133.717 21.0341 133.239 21.3626 132.741 21.8005V31.8041C132.741 32.5805 133.09 33.0683 133.787 33.2674L134.055 33.3569V33.6555H127.038Z" fill="white"/>
<path d="M158.216 34.1035C157.241 34.1035 156.365 33.984 155.588 33.7451C154.812 33.5262 154.095 33.2474 153.438 32.909L153.468 29.3555H153.767L154.782 31.1472C155.22 31.9435 155.698 32.5407 156.215 32.9389C156.753 33.3171 157.43 33.5062 158.246 33.5062C159.201 33.5062 159.968 33.2972 160.545 32.8792C161.142 32.4412 161.441 31.8639 161.441 31.1472C161.441 30.4902 161.232 29.9527 160.814 29.5347C160.396 29.1166 159.62 28.7384 158.485 28.3999L157.231 28.0117C156.016 27.6534 155.061 27.096 154.364 26.3395C153.667 25.583 153.319 24.6573 153.319 23.5624C153.319 22.2485 153.836 21.1336 154.872 20.2179C155.907 19.3021 157.39 18.8443 159.321 18.8443C160.097 18.8443 160.824 18.9338 161.501 19.113C162.198 19.2723 162.865 19.5211 163.502 19.8595L163.322 23.0846H163.024L161.979 21.2332C161.6 20.5762 161.222 20.1183 160.844 19.8595C160.486 19.5808 159.938 19.4415 159.202 19.4415C158.525 19.4415 157.888 19.6306 157.29 20.0089C156.693 20.3871 156.395 20.9246 156.395 21.6214C156.395 22.2982 156.643 22.8357 157.141 23.2339C157.659 23.632 158.415 24.0003 159.411 24.3388L160.754 24.727C162.188 25.1649 163.213 25.7721 163.83 26.5485C164.447 27.305 164.756 28.2208 164.756 29.2958C164.756 30.749 164.178 31.9136 163.024 32.7896C161.889 33.6655 160.286 34.1035 158.216 34.1035Z" fill="white"/>
<path d="M67 51.6618V41.1797H70.6687C71.4873 41.1797 72.1662 41.3195 72.7052 41.599C73.2443 41.8685 73.6436 42.2429 73.9032 42.7221C74.1727 43.1912 74.3075 43.7253 74.3075 44.3243C74.3075 44.8933 74.1777 45.4174 73.9182 45.8966C73.6686 46.3658 73.2743 46.7402 72.7352 47.0197C72.1961 47.2992 71.5073 47.439 70.6687 47.439H68.5873V51.6618H67ZM68.5873 46.1362H70.5938C71.3426 46.1362 71.8767 45.9765 72.1961 45.657C72.5255 45.3276 72.6903 44.8834 72.6903 44.3243C72.6903 43.7453 72.5255 43.2961 72.1961 42.9766C71.8767 42.6472 71.3426 42.4825 70.5938 42.4825H68.5873V46.1362Z" fill="white"/>
<path d="M80.8179 51.6618V41.1797H82.4052V45.672H87.4815V41.1797H89.0688V51.6618H87.4815V46.9748H82.4052V51.6618H80.8179Z" fill="white"/>
<path d="M100.979 51.8414C99.9406 51.8414 99.0322 51.6118 98.2535 51.1526C97.4748 50.6934 96.8659 50.0595 96.4266 49.2509C95.9874 48.4323 95.7678 47.4889 95.7678 46.4207C95.7678 45.3525 95.9874 44.4142 96.4266 43.6055C96.8659 42.7869 97.4748 42.148 98.2535 41.6888C99.0322 41.2296 99.9406 41 100.979 41C102.017 41 102.925 41.2296 103.704 41.6888C104.483 42.148 105.087 42.7869 105.516 43.6055C105.955 44.4142 106.175 45.3525 106.175 46.4207C106.175 47.4889 105.955 48.4323 105.516 49.2509C105.087 50.0595 104.483 50.6934 103.704 51.1526C102.925 51.6118 102.017 51.8414 100.979 51.8414ZM100.979 50.4189C101.698 50.4189 102.322 50.2592 102.851 49.9397C103.39 49.6202 103.809 49.161 104.108 48.5621C104.408 47.9631 104.558 47.2493 104.558 46.4207C104.558 45.5921 104.408 44.8784 104.108 44.2794C103.809 43.6804 103.39 43.2212 102.851 42.9017C102.322 42.5823 101.698 42.4226 100.979 42.4226C100.26 42.4226 99.6311 42.5823 99.0921 42.9017C98.553 43.2212 98.1337 43.6804 97.8342 44.2794C97.5447 44.8784 97.4 45.5921 97.4 46.4207C97.4 47.2493 97.5447 47.9631 97.8342 48.5621C98.1337 49.161 98.553 49.6202 99.0921 49.9397C99.6311 50.2592 100.26 50.4189 100.979 50.4189Z" fill="white"/>
<path d="M114.873 51.6618V42.4675H111.773V41.1797H119.545V42.4675H116.46V51.6618H114.873Z" fill="white"/>
<path d="M130.34 51.8414C129.302 51.8414 128.394 51.6118 127.615 51.1526C126.836 50.6934 126.227 50.0595 125.788 49.2509C125.349 48.4323 125.129 47.4889 125.129 46.4207C125.129 45.3525 125.349 44.4142 125.788 43.6055C126.227 42.7869 126.836 42.148 127.615 41.6888C128.394 41.2296 129.302 41 130.34 41C131.379 41 132.287 41.2296 133.066 41.6888C133.844 42.148 134.448 42.7869 134.878 43.6055C135.317 44.4142 135.536 45.3525 135.536 46.4207C135.536 47.4889 135.317 48.4323 134.878 49.2509C134.448 50.0595 133.844 50.6934 133.066 51.1526C132.287 51.6118 131.379 51.8414 130.34 51.8414ZM130.34 50.4189C131.059 50.4189 131.683 50.2592 132.212 49.9397C132.751 49.6202 133.17 49.161 133.47 48.5621C133.769 47.9631 133.919 47.2493 133.919 46.4207C133.919 45.5921 133.769 44.8784 133.47 44.2794C133.17 43.6804 132.751 43.2212 132.212 42.9017C131.683 42.5823 131.059 42.4226 130.34 42.4226C129.622 42.4226 128.993 42.5823 128.454 42.9017C127.914 43.2212 127.495 43.6804 127.196 44.2794C126.906 44.8784 126.761 45.5921 126.761 46.4207C126.761 47.2493 126.906 47.9631 127.196 48.5621C127.495 49.161 127.914 49.6202 128.454 49.9397C128.993 50.2592 129.622 50.4189 130.34 50.4189Z" fill="white"/>
<path d="M140.588 51.03C140.488 51.03 140.404 50.998 140.336 50.934C140.272 50.866 140.24 50.784 140.24 50.688C140.24 50.592 140.272 50.512 140.336 50.448C140.404 50.38 140.488 50.346 140.588 50.346C140.684 50.346 140.764 50.38 140.828 50.448C140.896 50.512 140.93 50.592 140.93 50.688C140.93 50.784 140.896 50.866 140.828 50.934C140.764 50.998 140.684 51.03 140.588 51.03ZM146.276 51.072C145.864 51.072 145.508 50.982 145.208 50.802C144.912 50.618 144.682 50.364 144.518 50.04C144.354 49.712 144.272 49.332 144.272 48.9C144.272 48.472 144.354 48.096 144.518 47.772C144.682 47.444 144.912 47.188 145.208 47.004C145.508 46.82 145.864 46.728 146.276 46.728C146.756 46.728 147.146 46.844 147.446 47.076C147.75 47.304 147.944 47.624 148.028 48.036H147.47C147.406 47.776 147.274 47.568 147.074 47.412C146.878 47.252 146.612 47.172 146.276 47.172C145.976 47.172 145.714 47.242 145.49 47.382C145.266 47.518 145.092 47.716 144.968 47.976C144.848 48.232 144.788 48.54 144.788 48.9C144.788 49.26 144.848 49.57 144.968 49.83C145.092 50.086 145.266 50.284 145.49 50.424C145.714 50.56 145.976 50.628 146.276 50.628C146.612 50.628 146.878 50.552 147.074 50.4C147.274 50.244 147.406 50.038 147.47 49.782H148.028C147.944 50.186 147.75 50.502 147.446 50.73C147.146 50.958 146.756 51.072 146.276 51.072ZM153.661 51.072C153.249 51.072 152.887 50.982 152.575 50.802C152.267 50.618 152.025 50.362 151.849 50.034C151.677 49.706 151.591 49.328 151.591 48.9C151.591 48.472 151.677 48.096 151.849 47.772C152.025 47.444 152.267 47.188 152.575 47.004C152.887 46.82 153.249 46.728 153.661 46.728C154.077 46.728 154.439 46.82 154.747 47.004C155.059 47.188 155.301 47.444 155.473 47.772C155.645 48.096 155.731 48.472 155.731 48.9C155.731 49.328 155.645 49.706 155.473 50.034C155.301 50.362 155.059 50.618 154.747 50.802C154.439 50.982 154.077 51.072 153.661 51.072ZM153.661 50.628C153.969 50.628 154.239 50.56 154.471 50.424C154.707 50.284 154.889 50.086 155.017 49.83C155.149 49.57 155.215 49.26 155.215 48.9C155.215 48.54 155.149 48.232 155.017 47.976C154.889 47.72 154.707 47.524 154.471 47.388C154.239 47.248 153.969 47.178 153.661 47.178C153.353 47.178 153.081 47.248 152.845 47.388C152.613 47.524 152.431 47.72 152.299 47.976C152.171 48.232 152.107 48.54 152.107 48.9C152.107 49.26 152.171 49.57 152.299 49.83C152.431 50.086 152.613 50.284 152.845 50.424C153.081 50.56 153.353 50.628 153.661 50.628ZM159.458 51V46.8H160.046L161.558 49.728L163.058 46.8H163.652V51H163.148V47.7L161.744 50.4H161.366L159.962 47.706V51H159.458Z" fill="white"/>
</svg>
